<svg width="407" height="407" viewBox="0 0 407 407" fill="none" xmlns="http://www.w3.org/2000/svg">
<g id="ISO">
<path id="Vector" fill-rule="evenodd" clip-rule="evenodd" d="M197.398 5.2954C197.83 2.25735 200.431 0 203.5 0C206.569 0 209.17 2.25735 209.603 5.2954L220.229 79.9176C220.411 81.1949 221.405 82.2047 222.68 82.4068C223.954 82.6084 225.211 81.9555 225.779 80.7963L258.945 13.1102C260.295 10.3549 263.467 9.01199 266.385 9.96037C269.304 10.9083 271.08 13.8589 270.553 16.8822L257.6 91.1356C257.378 92.407 258.011 93.6743 259.161 94.2603C260.311 94.8458 261.708 94.6135 262.606 93.6866L315.065 39.562C317.201 37.3587 320.632 37.0614 323.115 38.8652C325.597 40.6689 326.375 44.024 324.94 46.7363L289.675 113.353C289.071 114.493 289.281 115.894 290.194 116.807C291.106 117.719 292.507 117.93 293.648 117.326L360.265 82.0613C362.976 80.6254 366.331 81.4034 368.135 83.8857C369.939 86.3685 369.642 89.7996 367.438 91.9356L313.314 144.394C312.387 145.292 312.155 146.69 312.741 147.84C313.327 148.989 314.594 149.623 315.865 149.401L390.117 136.448C393.141 135.92 396.091 137.697 397.04 140.615C397.988 143.534 396.646 146.705 393.892 148.055L326.204 181.221C325.045 181.789 324.392 183.046 324.594 184.321C324.796 185.596 325.805 186.589 327.083 186.771L401.704 197.397C404.741 197.83 407 200.432 407 203.5C407 206.569 404.741 209.17 401.704 209.603L327.083 220.229C325.805 220.411 324.796 221.405 324.594 222.679C324.392 223.954 325.045 225.211 326.204 225.779L393.892 258.945C396.646 260.295 397.988 263.467 397.04 266.385C396.091 269.304 393.141 271.08 390.117 270.553L315.865 257.599C314.594 257.378 313.327 258.011 312.741 259.161C312.155 260.311 312.387 261.708 313.314 262.606L367.438 315.065C369.642 317.2 369.939 320.632 368.135 323.114C366.331 325.597 362.976 326.375 360.265 324.939L293.648 289.674C292.507 289.07 291.106 289.281 290.194 290.194C289.281 291.106 289.071 292.507 289.675 293.648L324.94 360.264C326.375 362.976 325.597 366.332 323.115 368.135C320.632 369.939 317.201 369.642 315.065 367.438L262.606 313.314C261.708 312.387 260.311 312.155 259.161 312.74C258.011 313.326 257.378 314.593 257.6 315.865L270.553 390.118C271.08 393.141 269.304 396.092 266.385 397.04C263.467 397.988 260.295 396.646 258.945 393.89L225.779 326.204C225.211 325.045 223.954 324.392 222.68 324.594C221.405 324.796 220.411 325.805 220.229 327.083L209.603 401.705C209.17 404.743 206.569 407 203.5 407C200.431 407 197.83 404.743 197.398 401.705L186.771 327.083C186.59 325.805 185.595 324.796 184.321 324.594C183.046 324.392 181.789 325.045 181.221 326.204L148.056 393.89C146.705 396.646 143.534 397.988 140.615 397.04C137.697 396.092 135.92 393.141 136.448 390.118L149.401 315.865C149.623 314.593 148.989 313.326 147.839 312.74C146.69 312.155 145.292 312.387 144.394 313.314L91.9356 367.438C89.7997 369.642 86.3685 369.939 83.8858 368.135C81.403 366.332 80.6255 362.976 82.0609 360.264L117.326 293.648C117.93 292.507 117.719 291.106 116.807 290.194C115.894 289.281 114.493 289.07 113.353 289.674L46.7359 324.939C44.0241 326.375 40.669 325.597 38.8652 323.114C37.0614 320.632 37.3583 317.2 39.5621 315.065L93.6867 262.606C94.6131 261.708 94.8459 260.311 94.2599 259.161C93.6739 258.011 92.4066 257.378 91.1357 257.599L16.8818 270.553C13.8589 271.08 10.9083 269.304 9.95993 266.385C9.01154 263.467 10.3544 260.295 13.1102 258.945L80.7964 225.779C81.9551 225.211 82.6084 223.954 82.4064 222.679C82.2048 221.405 81.195 220.411 79.9172 220.229L5.29541 209.603C2.25735 209.17 0 206.569 0 203.5C0 200.432 2.25735 197.83 5.29541 197.397L79.9172 186.771C81.195 186.589 82.2048 185.596 82.4064 184.321C82.6084 183.046 81.9551 181.789 80.7964 181.221L13.1102 148.055C10.3544 146.705 9.01154 143.534 9.95993 140.615C10.9083 137.697 13.8589 135.92 16.8818 136.448L91.1357 149.401C92.4066 149.623 93.6739 148.989 94.2599 147.84C94.8459 146.69 94.6131 145.292 93.6867 144.394L39.5621 91.9356C37.3583 89.7996 37.0614 86.3685 38.8652 83.8857C40.669 81.4034 44.0241 80.6254 46.7359 82.0613L113.353 117.326C114.493 117.93 115.894 117.719 116.807 116.807C117.719 115.894 117.93 114.493 117.326 113.353L82.0609 46.7363C80.6255 44.024 81.403 40.6689 83.8858 38.8652C86.3685 37.0614 89.7997 37.3587 91.9356 39.562L144.394 93.6866C145.292 94.6135 146.69 94.8458 147.839 94.2603C148.989 93.6743 149.623 92.407 149.401 91.1356L136.448 16.8822C135.92 13.8589 137.697 10.9083 140.615 9.96037C143.534 9.01199 146.705 10.3549 148.056 13.1102L181.221 80.7963C181.789 81.9555 183.046 82.6084 184.321 82.4068C185.595 82.2047 186.59 81.1949 186.771 79.9176L197.398 5.2954ZM203.5 94.2016C263.824 94.2016 312.799 143.177 312.799 203.5C312.799 263.823 263.824 312.799 203.5 312.799C143.177 312.799 94.2017 263.823 94.2017 203.5C94.2017 143.177 143.177 94.2016 203.5 94.2016Z" fill="#999"/>
</g>
</svg>
