<svg width="960" height="200" viewBox="0 0 960 200" fill="none" xmlns="http://www.w3.org/2000/svg">
<path fill-rule="evenodd" clip-rule="evenodd" d="M93.4167 16.1815C93.5951 14.9299 94.668 14 95.9338 14C97.1995 14 98.2724 14.9299 98.4508 16.1815L102.834 46.9227C102.909 47.4489 103.319 47.8649 103.844 47.9482C104.37 48.0312 104.889 47.7622 105.123 47.2847L118.802 19.4009C119.359 18.2658 120.667 17.7126 121.871 18.1033C123.074 18.4938 123.807 19.7093 123.59 20.9548L118.247 51.5441C118.156 52.0678 118.417 52.5899 118.891 52.8313C119.365 53.0725 119.942 52.9768 120.312 52.595L141.949 30.2979C142.83 29.3902 144.245 29.2678 145.269 30.0108C146.293 30.7539 146.613 32.1361 146.021 33.2534L131.476 60.6966C131.227 61.1664 131.314 61.7435 131.69 62.1195C132.067 62.4955 132.645 62.5823 133.115 62.3335L160.591 47.8058C161.71 47.2143 163.094 47.5348 163.838 48.5574C164.582 49.5802 164.459 50.9937 163.55 51.8736L141.226 73.4844C140.844 73.8544 140.748 74.43 140.99 74.9038C141.232 75.3773 141.754 75.6384 142.279 75.547L172.904 70.2107C174.151 69.9935 175.368 70.7254 175.759 71.9277C176.15 73.13 175.597 74.4365 174.461 74.9927L146.543 88.6556C146.065 88.8894 145.796 89.4075 145.879 89.9326C145.962 90.4577 146.379 90.8671 146.906 90.942L177.683 95.3195C178.936 95.4979 179.867 96.5695 179.867 97.8335C179.867 99.0977 178.936 100.169 177.683 100.348L146.906 104.725C146.379 104.8 145.962 105.21 145.879 105.735C145.796 106.26 146.065 106.778 146.543 107.012L174.461 120.675C175.597 121.231 176.15 122.537 175.759 123.74C175.368 124.942 174.151 125.674 172.904 125.457L142.279 120.12C141.754 120.029 141.232 120.29 140.99 120.763C140.748 121.237 140.844 121.813 141.226 122.183L163.55 143.794C164.459 144.673 164.582 146.087 163.838 147.11C163.094 148.132 161.71 148.453 160.591 147.861L133.115 133.334C132.645 133.085 132.067 133.172 131.69 133.548C131.314 133.924 131.227 134.501 131.476 134.971L146.021 162.414C146.613 163.531 146.293 164.913 145.269 165.656C144.245 166.4 142.83 166.277 141.949 165.369L120.312 143.072C119.942 142.69 119.365 142.595 118.891 142.836C118.417 143.077 118.156 143.599 118.247 144.123L123.59 174.712C123.807 175.958 123.074 177.174 121.871 177.564C120.667 177.955 119.359 177.401 118.802 176.266L105.123 148.382C104.889 147.905 104.37 147.636 103.844 147.719C103.319 147.802 102.909 148.218 102.834 148.745L98.4508 179.486C98.2724 180.737 97.1995 181.667 95.9338 181.667C94.668 181.667 93.5951 180.737 93.4167 179.486L89.034 148.745C88.9589 148.218 88.5489 147.802 88.0232 147.719C87.4975 147.636 86.9789 147.905 86.7448 148.382L73.0656 176.266C72.5087 177.401 71.2005 177.955 69.9968 177.564C68.793 177.174 68.0604 175.958 68.2779 174.712L73.6204 144.123C73.7119 143.599 73.4507 143.077 72.9764 142.836C72.5023 142.595 71.9257 142.69 71.5554 143.072L49.9189 165.369C49.0379 166.277 47.6227 166.4 46.5987 165.656C45.5747 164.913 45.254 163.531 45.8461 162.414L60.3911 134.971C60.6402 134.501 60.5533 133.924 60.177 133.548C59.8006 133.172 59.2227 133.085 58.7524 133.334L31.2763 147.861C30.1578 148.453 28.7739 148.132 28.03 147.11C27.286 146.087 27.4085 144.673 28.3174 143.794L50.6411 122.183C51.0232 121.813 51.1192 121.237 50.8775 120.763C50.6358 120.29 50.1132 120.029 49.589 120.12L18.9629 125.457C17.7161 125.674 16.4991 124.942 16.108 123.74C15.7168 122.537 16.2707 121.231 17.4073 120.675L45.3245 107.012C45.8024 106.778 46.0719 106.26 45.9885 105.735C45.9054 105.21 45.4889 104.8 44.9619 104.725L14.1841 100.348C12.931 100.169 12 99.0977 12 97.8335C12 96.5695 12.931 95.4979 14.1841 95.3195L44.9619 90.942C45.4889 90.8671 45.9054 90.4577 45.9885 89.9326C46.0719 89.4075 45.8024 88.8894 45.3245 88.6556L17.4073 74.9927C16.2707 74.4365 15.7168 73.13 16.108 71.9277C16.4991 70.7254 17.7161 69.9935 18.9629 70.2107L49.589 75.547C50.1132 75.6384 50.6358 75.3773 50.8775 74.9038C51.1192 74.43 51.0232 73.8544 50.6411 73.4844L28.3174 51.8736C27.4085 50.9937 27.286 49.5802 28.03 48.5574C28.7739 47.5348 30.1578 47.2143 31.2763 47.8058L58.7524 62.3335C59.2227 62.5823 59.8006 62.4955 60.177 62.1195C60.5533 61.7435 60.6402 61.1664 60.3911 60.6966L45.8461 33.2534C45.254 32.1361 45.5747 30.7539 46.5987 30.0108C47.6227 29.2678 49.0379 29.3902 49.9189 30.2979L71.5554 52.595C71.9257 52.9768 72.5023 53.0725 72.9764 52.8313C73.4507 52.5899 73.7119 52.0678 73.6204 51.5441L68.2779 20.9548C68.0604 19.7093 68.793 18.4938 69.9968 18.1033C71.2005 17.7126 72.5087 18.2658 73.0656 19.4009L86.7448 47.2847C86.9789 47.7622 87.4975 48.0312 88.0232 47.9482C88.5489 47.8649 88.9589 47.4489 89.034 46.9227L93.4167 16.1815ZM95.9338 52.8071C120.814 52.8071 141.014 72.9828 141.014 97.8335C141.014 122.684 120.814 142.86 95.9338 142.86C71.0533 142.86 50.8535 122.684 50.8535 97.8335C50.8535 72.9828 71.0533 52.8071 95.9338 52.8071Z" fill="white"/>
<path d="M209.928 167.438H216.768V160.395H220.152C226.287 160.395 230.765 157.332 230.765 151.521V151.451C230.765 145.993 226.745 142.789 220.505 142.789H209.928V167.438ZM216.768 155.043V148.528H219.976C222.444 148.528 223.925 149.655 223.925 151.768V151.838C223.925 153.775 222.444 155.043 220.011 155.043H216.768Z" fill="white"/>
<path d="M246.295 167.484C253.911 167.484 259.622 161.744 259.622 154.666V154.595C259.622 147.517 253.981 141.848 246.366 141.848C238.75 141.848 233.039 147.588 233.039 154.666V154.736C233.039 161.815 238.68 167.484 246.295 167.484ZM246.366 161.322C242.628 161.322 240.055 158.223 240.055 154.666V154.595C240.055 151.039 242.558 148.01 246.295 148.01C250.068 148.01 252.641 151.109 252.641 154.666V154.736C252.641 158.293 250.138 161.322 246.366 161.322Z" fill="white"/>
<path d="M262.669 167.683H281.461V161.696H269.509V143.033H262.669V167.683Z" fill="white"/>
<path d="M282.817 167.859H290.009L291.772 163.457H301.292L303.09 167.859H310.423L299.917 143.033H293.324L282.817 167.859ZM293.782 158.14L296.567 151.132L299.317 158.14H293.782Z" fill="white"/>
<path d="M312.446 167.683H319.286V160.217H322.283L327.254 167.683H335.152L329.264 159.09C332.331 157.787 334.341 155.287 334.341 151.519V151.449C334.341 149.019 333.6 147.118 332.155 145.709C330.498 144.019 327.889 143.033 324.116 143.033H312.446V167.683ZM319.286 154.865V148.949H323.764C326.055 148.949 327.466 149.935 327.466 151.871V151.942C327.466 153.738 326.126 154.865 323.799 154.865H319.286Z" fill="white"/>
<path d="M344.804 143.033H337.929V167.683H344.804V143.033Z" fill="white"/>
<path d="M348.595 167.683H370.419V161.907H358.044L370.419 147.998V143.033H349.018V148.808H360.97L348.595 162.717V167.683Z" fill="white"/>
<path d="M372.299 167.859H379.491L381.254 163.457H390.773L392.572 167.859H399.905L389.398 143.033H382.806L372.299 167.859ZM383.264 158.14L386.049 151.132L388.799 158.14H383.264Z" fill="white"/>
<path d="M401.929 167.683H411.308C420.193 167.683 425.375 162.4 425.375 155.287V155.217C425.375 148.104 420.263 143.033 411.449 143.033H401.929V167.683ZM408.769 161.626V149.09H411.554C415.644 149.09 418.359 151.378 418.359 155.322V155.393C418.359 159.372 415.644 161.626 411.554 161.626H408.769Z" fill="white"/>
<path d="M441.852 167.484C449.467 167.484 455.179 161.744 455.179 154.666V154.595C455.179 147.517 449.538 141.848 441.922 141.848C434.307 141.848 428.595 147.588 428.595 154.666V154.736C428.595 161.815 434.237 167.484 441.852 167.484ZM441.922 161.322C438.185 161.322 435.612 158.223 435.612 154.666V154.595C435.612 151.039 438.115 148.01 441.852 148.01C445.624 148.01 448.198 151.109 448.198 154.666V154.736C448.198 158.293 445.695 161.322 441.922 161.322Z" fill="white"/>
<path d="M468.012 168.523C474.006 168.523 477.99 165.53 477.99 160.495V160.425C477.99 155.812 474.464 153.981 468.788 152.749C465.368 151.974 464.522 151.481 464.522 150.355V150.284C464.522 149.404 465.332 148.7 466.989 148.7C469.175 148.7 471.643 149.545 473.9 151.129L477.32 146.305C474.64 144.158 471.361 143.031 467.166 143.031C461.243 143.031 457.611 146.341 457.611 150.918V150.988C457.611 156.059 461.666 157.538 466.919 158.735C470.268 159.509 471.079 160.073 471.079 161.094V161.164C471.079 162.221 470.092 162.854 468.259 162.854C465.403 162.854 462.688 161.833 460.255 159.897L456.448 164.439C459.48 167.15 463.64 168.523 468.012 168.523Z" fill="white"/>
<path d="M497.708 139.48H492.596V172.088H497.708V139.48Z" fill="white"/>
<path d="M520.212 143.033H513.337V167.683H520.212V143.033Z" fill="white"/>
<path d="M524.596 167.683H531.365V154.16L541.907 167.683H547.901V143.033H541.132V156.062L530.978 143.033H524.596V167.683Z" fill="white"/>
<path d="M552.448 167.683H559.218V154.16L569.76 167.683H575.754V143.033H568.984V156.062L558.83 143.033H552.448V167.683Z" fill="white"/>
<path d="M592.372 167.484C599.987 167.484 605.698 161.744 605.698 154.666V154.595C605.698 147.517 600.058 141.848 592.442 141.848C584.827 141.848 579.115 147.588 579.115 154.666V154.736C579.115 161.815 584.756 167.484 592.372 167.484ZM592.442 161.322C588.705 161.322 586.131 158.223 586.131 154.666V154.595C586.131 151.039 588.635 148.01 592.372 148.01C596.144 148.01 598.718 151.109 598.718 154.666V154.736C598.718 158.293 596.215 161.322 592.442 161.322Z" fill="white"/>
<path d="M615.795 167.859H622.141L632.154 143.033H624.644L619.039 158.633L613.433 143.033H605.782L615.795 167.859Z" fill="white"/>
<path d="M629.486 167.859H636.678L638.441 163.457H647.961L649.759 167.859H657.092L646.586 143.033H639.993L629.486 167.859ZM640.451 158.14L643.236 151.132L645.986 158.14H640.451Z" fill="white"/>
<path d="M669.473 167.484C674.938 167.484 678.076 165.125 680.403 161.92L675.255 158.258C673.774 160.054 672.258 161.251 669.685 161.251C666.229 161.251 663.797 158.363 663.797 154.666V154.595C663.797 151.004 666.229 148.081 669.685 148.081C672.047 148.081 673.669 149.208 675.079 150.968L680.226 146.989C678.04 143.961 674.797 141.848 669.755 141.848C662.281 141.848 656.745 147.482 656.745 154.666V154.736C656.745 162.096 662.422 167.484 669.473 167.484Z" fill="white"/>
<path d="M690.287 143.033H683.413V167.683H690.287V143.033Z" fill="white"/>
<path d="M707.335 168.057C714.951 168.057 720.662 162.317 720.662 155.239V155.169C720.662 148.091 715.021 142.422 707.406 142.422C699.79 142.422 694.079 148.161 694.079 155.239V155.31C694.079 162.388 699.72 168.057 707.335 168.057ZM707.406 161.895C703.669 161.895 701.095 158.796 701.095 155.239V155.169C701.095 151.612 703.598 148.584 707.335 148.584C711.108 148.584 713.682 151.683 713.682 155.239V155.31C713.682 158.866 711.178 161.895 707.406 161.895ZM704.973 141.26H709.698L714.88 136.752L708.64 134.745L704.973 141.26Z" fill="white"/>
<path d="M724.301 167.683H731.071V154.16L741.612 167.683H747.606V143.033H740.837V156.062L730.683 143.033H724.301V167.683Z" fill="white"/>
<path d="M768.643 167.683H775.518V158.351L784.896 143.033H777.246L772.134 152.012L767.057 143.033H759.265L768.643 158.457V167.683Z" fill="white"/>
<path d="M797.191 167.683H806.569C815.453 167.683 820.636 162.4 820.636 155.287V155.217C820.636 148.104 815.524 143.033 806.71 143.033H797.191V167.683ZM804.031 161.626V149.09H806.816C810.905 149.09 813.62 151.378 813.62 155.322V155.393C813.62 159.372 810.905 161.626 806.816 161.626H804.031Z" fill="white"/>
<path d="M830.732 143.033H823.857V167.683H830.732V143.033Z" fill="white"/>
<path d="M844.903 168.523C850.897 168.523 854.881 165.53 854.881 160.495V160.425C854.881 155.812 851.355 153.981 845.679 152.749C842.259 151.974 841.413 151.481 841.413 150.355V150.284C841.413 149.404 842.224 148.7 843.881 148.7C846.067 148.7 848.535 149.545 850.791 151.129L854.211 146.305C851.532 144.158 848.253 143.031 844.057 143.031C838.134 143.031 834.502 146.341 834.502 150.918V150.988C834.502 156.059 838.557 157.538 843.81 158.735C847.16 159.509 847.971 160.073 847.971 161.094V161.164C847.971 162.221 846.983 162.854 845.15 162.854C842.294 162.854 839.579 161.833 837.147 159.897L833.339 164.439C836.371 167.15 840.531 168.523 844.903 168.523Z" fill="white"/>
<path d="M858.228 167.683H878.254V161.872H864.997V157.964H876.844V152.576H864.997V148.843H878.078V143.033H858.228V167.683Z" fill="white"/>
<path d="M881.932 167.178H888.701V153.656L899.243 167.178H905.236V142.529H898.467V155.558L888.313 142.529H881.932V167.178ZM889.371 141.121C889.829 140.029 890.182 139.501 891.169 139.501C892.297 139.501 894.554 140.874 896.669 140.874C899.102 140.874 900.3 139.113 901.041 135.627L897.832 134.747C897.374 135.839 897.022 136.367 896.034 136.367C894.906 136.367 892.65 134.994 890.534 134.994C888.102 134.994 886.903 136.754 886.163 140.24L889.371 141.121Z" fill="white"/>
<path d="M921.855 167.484C929.471 167.484 935.182 161.744 935.182 154.666V154.595C935.182 147.517 929.541 141.848 921.926 141.848C914.31 141.848 908.599 147.588 908.599 154.666V154.736C908.599 161.815 914.24 167.484 921.855 167.484ZM921.926 161.322C918.189 161.322 915.615 158.223 915.615 154.666V154.595C915.615 151.039 918.118 148.01 921.855 148.01C925.628 148.01 928.202 151.109 928.202 154.666V154.736C928.202 158.293 925.698 161.322 921.926 161.322Z" fill="white"/>
<path d="M235.664 129.058C250.695 129.058 260.395 121.639 260.395 108.983C260.395 97.5488 251.656 93.7957 237.674 90.8281C229.11 88.9952 227.012 88.0351 227.012 84.9802C227.012 82.7108 229.022 81.0525 233.13 81.0525C238.548 81.0525 244.665 83.06 250.258 87.075L258.735 75.1173C252.093 69.793 243.966 67 233.566 67C219.322 67 209.884 74.7681 209.884 86.7258C209.884 99.2072 219.934 102.611 232.955 105.579C241.257 107.499 243.354 107.935 243.354 110.816C243.354 113.434 240.907 115.005 236.276 115.005C229.197 115.005 222.555 112.474 216.438 107.674L207 118.933C214.603 125.654 224.828 129.058 235.664 129.058Z" fill="white"/>
<path d="M295.981 129.058C313.721 129.058 328.664 114.831 328.664 97.9852C328.664 81.1397 313.721 67 295.981 67C278.241 67 263.297 81.1397 263.297 97.9852C263.297 114.831 278.241 129.058 295.981 129.058ZM295.981 113.696C287.766 113.696 280.775 106.539 280.775 97.9852C280.775 89.5189 287.766 82.3617 295.981 82.3617C304.195 82.3617 311.186 89.5189 311.186 97.9852C311.186 106.539 304.195 113.696 295.981 113.696Z" fill="white"/>
<path d="M350.769 113.046V68.1821H333.815V128.146H378.733V113.046H350.769Z" fill="white"/>
<path d="M424.403 128.146H443.541L420.47 68.1821H401.332L378.261 128.146H397.399L400.458 120.116H421.344L424.403 128.146ZM405.264 107.634L410.945 93.0579L416.538 107.634H405.264Z" fill="white"/>
<path d="M500.59 128.146L486.259 107.809C493.599 104.405 498.144 97.6839 498.144 89.1301C498.144 76.8232 488.618 68.1821 475.16 68.1821H446.409V128.146H463.363V110.078H468.606L481.277 128.146H500.59ZM463.363 83.544H473.762C477.782 83.544 480.666 85.9006 480.666 89.1301C480.666 92.3596 477.782 94.7162 473.762 94.7162H463.363V83.544Z" fill="white"/>
<path d="M556.13 129.058C565.742 129.058 574.481 124.956 580.511 118.409L568.102 107.586C565.218 111.252 560.936 113.696 556.13 113.696C547.915 113.696 540.924 106.539 540.924 97.9852C540.924 89.5189 547.915 82.3617 556.13 82.3617C560.849 82.3617 565.218 84.8056 568.015 88.4715L580.511 77.5612C574.481 71.1023 565.742 67 556.13 67C538.39 67 523.446 81.1397 523.446 97.9852C523.446 114.831 538.39 129.058 556.13 129.058Z" fill="white"/>
<path d="M614.953 129.058C632.519 129.058 647.287 114.831 647.287 97.9852C647.287 81.1397 632.519 67 614.953 67C597.475 67 582.707 81.1397 582.707 97.9852C582.707 114.831 597.475 129.058 614.953 129.058ZM614.953 115.529C605.777 115.529 598 107.499 598 97.9852C598 88.5588 605.777 80.5288 614.953 80.5288C624.129 80.5288 631.907 88.5588 631.907 97.9852C631.907 107.499 624.129 115.529 614.953 115.529Z" fill="white"/>
<path d="M654.41 128.146H667.257V89.392L696.183 128.146H709.117V68.1821H696.183V106.936L667.257 68.1821H654.41V128.146Z" fill="white"/>
<path d="M735.266 128.146H746.103V78.1324H765.328V68.1821H716.041V78.1324H735.266V128.146Z" fill="white"/>
<path d="M819.878 87.7336C819.878 76.2995 810.265 68.1821 797.593 68.1821H772.337V128.146H781.164V107.285H794.971L809.653 128.146H819.79L804.497 106.412C813.585 104.056 819.878 96.9856 819.878 87.7336ZM781.164 76.3868H796.37C805.021 76.3868 810.876 80.6636 810.876 87.7336C810.876 94.8035 805.021 99.0804 796.37 99.0804H781.164V76.3868Z" fill="white"/>
<path d="M856.431 129.058C873.122 129.058 887.104 114.831 887.104 97.9852C887.104 81.1397 873.122 67 856.431 67C839.828 67 825.671 81.1397 825.671 97.9852C825.671 114.831 839.828 129.058 856.431 129.058ZM856.431 122.773C843.498 122.773 832.575 111.427 832.575 97.9852C832.575 84.631 843.498 73.2843 856.431 73.2843C869.365 73.2843 880.201 84.631 880.201 97.9852C880.201 111.427 869.365 122.773 856.431 122.773Z" fill="white"/>
<path d="M901.819 121.687V68.1821H895.003V128.146H934.59V121.687H901.819Z" fill="white"/>
</svg>
